<svg version="1.1" xmlns="http://www.w3.org/2000/svg" viewBox="0 0 1293.7760600185165 448.49954225885307" width="1293.7760600185165" height="448.49954225885307" filter="invert(93%) hue-rotate(180deg)">
  <!-- svg-source:excalidraw -->
  
  <defs>
    <style class="style-fonts">
      @font-face {
        font-family: "Virgil";
        src: url("https://excalidraw.com/Virgil.woff2");
      }
      @font-face {
        font-family: "Cascadia";
        src: url("https://excalidraw.com/Cascadia.woff2");
      }
      @font-face {
        font-family: "Assistant";
        src: url("https://excalidraw.com/Assistant-Regular.woff2");
      }
    </style>
    
  </defs>
  <rect x="0" y="0" width="1293.7760600185165" height="448.49954225885307" fill="#ffffff"></rect><g stroke-linecap="round"><g transform="translate(662.9464632820154 38.073398720920636) rotate(269.83845249062614 22.2999563342496 97.02251505129732)" fill-rule="evenodd"><path d="M1.82 -0.45 L45.88 -0.91 L43.14 174.13 L22.15 194.91 L-0.09 171.78 L-1.56 0.01" stroke="none" stroke-width="0" fill="#ffec99" fill-rule="evenodd"></path><path d="M0 0 C15.12 -0.72, 33.64 0.39, 44.6 -0.17 M0 0 C15.92 -0.55, 30.22 -1.54, 44.6 -0.17 M44.6 -0.17 C48.09 50.46, 46.99 96.96, 44.22 174.81 M44.6 -0.17 C43.55 60.46, 43.05 121.91, 44.22 174.81 M44.22 174.81 C38.51 180.54, 27.32 189.54, 21.45 194.22 M44.22 174.81 C35.38 182.98, 25.95 189.28, 21.45 194.22 M21.45 194.22 C14.65 187.05, 10.96 182.87, 0.7 173.74 M21.45 194.22 C13.78 185.88, 7.2 179.97, 0.7 173.74 M0.7 173.74 C0.7 127.35, -2.26 78.15, 0 0 M0.7 173.74 C-0.38 113.29, -0.55 51.41, 0 0 M0 0 C0 0, 0 0, 0 0 M0 0 C0 0, 0 0, 0 0" stroke="#f08c00" stroke-width="1" fill="none"></path></g></g><mask></mask><g stroke-linecap="round" transform="translate(594.7042230677871 126.13014519318165) rotate(0 18.14217477552802 12.05857125798562)"><path d="M-0.92 0.57 L36.92 -0.81 L36.14 24.63 L0.82 23.33" stroke="none" stroke-width="0" fill="#ffec99"></path><path d="M0 0 C11.98 0.37, 24.39 0.59, 36.28 0 M0 0 C14 -0.49, 28.51 0.5, 36.28 0 M36.28 0 C36.85 4.62, 36.9 10.41, 36.28 24.12 M36.28 0 C36.28 6.24, 36.51 13.04, 36.28 24.12 M36.28 24.12 C22.55 24.77, 11.27 23.73, 0 24.12 M36.28 24.12 C23.69 23.75, 11.36 24.24, 0 24.12 M0 24.12 C0.94 16.91, 0.6 8.22, 0 0 M0 24.12 C0.25 18.6, -0.08 12.88, 0 0" stroke="#f08c00" stroke-width="1" fill="none"></path></g><g stroke-linecap="round"><g transform="translate(613.8060220385796 137.95005645953347) rotate(0 -0.45000520775874975 -5.696541372213034)" fill-rule="evenodd"><path d="M0.63 -0.81 L17.07 -10.88 L-17.29 -12.04 L0.59 0.61" stroke="none" stroke-width="0" fill="#ffec99" fill-rule="evenodd"></path><path d="M0 0 C5.17 -2.6, 10.36 -5.76, 17.21 -11.39 M0 0 C4.98 -2.76, 9.76 -6.11, 17.21 -11.39 M17.21 -11.39 C5.1 -12.2, -8.31 -11.16, -18.11 -11.25 M17.21 -11.39 C9.17 -11.43, 1.04 -10.93, -18.11 -11.25 M-18.11 -11.25 C-12.66 -8.79, -8.6 -5.47, 0 0 M-18.11 -11.25 C-11.92 -7.26, -5.6 -3.59, 0 0 M0 0 C0 0, 0 0, 0 0 M0 0 C0 0, 0 0, 0 0" stroke="#f08c00" stroke-width="1" fill="none"></path></g></g><mask></mask><g stroke-linecap="round"><g transform="translate(671.577352943621 140.02017572450632) rotate(0 22.7959698748341 -0.42230545885306014)"><path d="M0 0 C16.1 0.1, 30.24 -1.29, 45.59 -0.84" stroke="#f08c00" stroke-width="1.5" fill="none" stroke-dasharray="1.5 7"></path></g></g><mask></mask><g stroke-linecap="round" transform="translate(638.0770140877512 126.33900293484925) rotate(0 18.14217477552802 12.05857125798562)"><path d="M0.82 -0.79 L36.87 0.61 L36.95 23.89 L-0.61 23.73" stroke="none" stroke-width="0" fill="#ffec99"></path><path d="M0 0 C12.77 -0.7, 24.7 -0.26, 36.28 0 M0 0 C14.69 0.06, 28.35 0.08, 36.28 0 M36.28 0 C35.58 5.49, 35.72 11.52, 36.28 24.12 M36.28 0 C36.11 6.98, 36.72 15.19, 36.28 24.12 M36.28 24.12 C26.93 23.86, 15.8 24.11, 0 24.12 M36.28 24.12 C24.81 24.51, 14.09 24.34, 0 24.12 M0 24.12 C-0.84 19.06, 0.55 12.95, 0 0 M0 24.12 C0.43 15.15, 0.04 7.26, 0 0" stroke="#f08c00" stroke-width="1" fill="none"></path></g><g stroke-linecap="round"><g transform="translate(657.2078486114697 137.31506278272872) rotate(0 -0.45000520775874975 -5.696541372213034)" fill-rule="evenodd"><path d="M0.59 0.61 L17.88 -11.62 L-18.72 -11.64 L-0.66 -0.03" stroke="none" stroke-width="0" fill="#ffec99" fill-rule="evenodd"></path><path d="M0 0 C5.04 -4.11, 13.05 -8.64, 17.21 -11.39 M0 0 C6.3 -4.29, 13.22 -9.19, 17.21 -11.39 M17.21 -11.39 C5.04 -10.98, -6.02 -10.74, -18.11 -11.25 M17.21 -11.39 C3.49 -11, -11.11 -11.2, -18.11 -11.25 M-18.11 -11.25 C-13.22 -7.69, -6.48 -3.93, 0 0 M-18.11 -11.25 C-13.1 -8.03, -8.8 -5.61, 0 0 M0 0 C0 0, 0 0, 0 0 M0 0 C0 0, 0 0, 0 0" stroke="#f08c00" stroke-width="1" fill="none"></path></g></g><mask></mask><g stroke-linecap="round" transform="translate(715.9113324831151 125.50357196817185) rotate(0 18.14217477552802 12.05857125798562)"><path d="M0.67 -0.23 L35.68 -0.39 L35.62 24.09 L-0.28 23.84" stroke="none" stroke-width="0" fill="#ffec99"></path><path d="M0 0 C9.66 -0.67, 18.32 0.6, 36.28 0 M0 0 C12.2 -0.24, 25.23 -0.43, 36.28 0 M36.28 0 C36.27 7.62, 37.21 13.61, 36.28 24.12 M36.28 0 C36.22 5.63, 36.46 11.04, 36.28 24.12 M36.28 24.12 C26.53 24.25, 16.29 23.54, 0 24.12 M36.28 24.12 C21.75 23.91, 7.75 23.76, 0 24.12 M0 24.12 C0.49 15.01, 0.51 8.39, 0 0 M0 24.12 C0.43 18.44, 0.31 13.86, 0 0" stroke="#f08c00" stroke-width="1" fill="none"></path></g><g stroke-linecap="round"><g transform="translate(735.7747265253411 135.95998206731838) rotate(0 -0.45000520775874975 -5.696541372213034)" fill-rule="evenodd"><path d="M-0.61 -0.39 L16.55 -11.42 L-18.39 -11.53 L-0.2 -0.13" stroke="none" stroke-width="0" fill="#ffec99" fill-rule="evenodd"></path><path d="M0 0 C5.76 -2.59, 10.14 -7.32, 17.21 -11.39 M0 0 C6.22 -4.3, 12.06 -8.22, 17.21 -11.39 M17.21 -11.39 C6.26 -11.73, -7.43 -10.46, -18.11 -11.25 M17.21 -11.39 C3.4 -11.04, -10.73 -11.66, -18.11 -11.25 M-18.11 -11.25 C-13.06 -8.5, -6.48 -4.23, 0 0 M-18.11 -11.25 C-11.91 -7.64, -5.04 -2.94, 0 0 M0 0 C0 0, 0 0, 0 0 M0 0 C0 0, 0 0, 0 0" stroke="#f08c00" stroke-width="1" fill="none"></path></g></g><mask></mask><g transform="translate(612.030558624484 157.3433122525512) rotate(0 72.4296646118164 18.39329058789204)"><text x="72.4296646118164" y="0" font-family="Virgil, Segoe UI Emoji" font-size="27.249319389469637px" fill="#f08c00" text-anchor="middle" style="white-space: pre;" direction="ltr" dominant-baseline="text-before-edge">Message Q</text></g><g stroke-linecap="round" transform="translate(234 98.32760136003583) rotate(0 70 53.00000000000003)"><path d="M26.5 0 C54.85 -0.74, 87.54 2.19, 113.5 0 C130.15 -2.51, 137.75 12.02, 140 26.5 C143.23 42.36, 140.05 65.9, 140 79.5 C142.96 97.86, 134.03 103.54, 113.5 106 C88.97 106.31, 60.35 105.97, 26.5 106 C8.77 108.17, -2.39 97.63, 0 79.5 C-2.54 61.19, -3.69 52.04, 0 26.5 C-2.33 8.61, 5.24 -2.91, 26.5 0" stroke="none" stroke-width="0" fill="#a5d8ff"></path><path d="M26.5 0 C46.15 -0.06, 66.74 0.03, 113.5 0 M26.5 0 C55.4 1.56, 84.5 0.55, 113.5 0 M113.5 0 C131.24 -1.48, 138.13 10.02, 140 26.5 M113.5 0 C129.49 -2.14, 141.55 7.01, 140 26.5 M140 26.5 C140.55 39.89, 139.61 56.77, 140 79.5 M140 26.5 C140.25 39.52, 140.76 54.97, 140 79.5 M140 79.5 C141.21 97.81, 132.26 107.81, 113.5 106 M140 79.5 C138.92 95.26, 131.75 107.98, 113.5 106 M113.5 106 C83.44 106.5, 57.09 106.28, 26.5 106 M113.5 106 C81.93 105.96, 50.69 106.25, 26.5 106 M26.5 106 C7.75 106.73, -1.66 95.82, 0 79.5 M26.5 106 C8.77 105.17, -1.42 98.55, 0 79.5 M0 79.5 C1.04 69.29, -1.74 54.87, 0 26.5 M0 79.5 C0.25 58.54, -0.55 38.27, 0 26.5 M0 26.5 C-0.4 8.66, 8.3 1.13, 26.5 0 M0 26.5 C-0.68 9.1, 7.03 1.8, 26.5 0" stroke="#1971c2" stroke-width="4" fill="none"></path></g><g stroke-linecap="round" transform="translate(797 55.32760136003583) rotate(0 86.5 53.00000000000003)"><path d="M26.5 0 C59.57 4.28, 86.2 2.12, 146.5 0 C166.12 -3.03, 175.4 6.04, 173 26.5 C169.09 40.75, 175.05 60.63, 173 79.5 C176.39 97.69, 161.61 103.53, 146.5 106 C101.3 102.83, 51.19 106.72, 26.5 106 C10.29 108.67, -1.95 98.63, 0 79.5 C2.87 63.34, 2.75 46.23, 0 26.5 C1.23 8.58, 5.88 0.99, 26.5 0" stroke="none" stroke-width="0" fill="#a5d8ff"></path><path d="M26.5 0 C54.78 -0.77, 84.6 2.62, 146.5 0 M26.5 0 C52.26 -1.21, 77.3 -1.32, 146.5 0 M146.5 0 C163.76 0.46, 172.6 8.66, 173 26.5 M146.5 0 C163.55 1.3, 172.32 9.1, 173 26.5 M173 26.5 C173.69 36.83, 171.88 48.97, 173 79.5 M173 26.5 C172.46 40.04, 174.04 55.32, 173 79.5 M173 79.5 C172.37 96.87, 166.13 104.53, 146.5 106 M173 79.5 C173.23 98.69, 166.06 106.44, 146.5 106 M146.5 106 C102.73 105.59, 55.95 106.24, 26.5 106 M146.5 106 C117.87 105.31, 88.17 105.76, 26.5 106 M26.5 106 C10.23 107.14, -1.04 95.18, 0 79.5 M26.5 106 C6.9 107.29, -1.49 97.03, 0 79.5 M0 79.5 C2.04 69.97, 0.02 59.53, 0 26.5 M0 79.5 C0.29 58.43, 0.22 38.8, 0 26.5 M0 26.5 C-0.38 8.1, 10.58 -0.89, 26.5 0 M0 26.5 C-0.42 10.26, 7.08 -1.3, 26.5 0" stroke="#1971c2" stroke-width="4" fill="none"></path></g><g transform="translate(271 127.32760136003589) rotate(0 39.13201904296875 22.5)"><text x="0" y="0" font-family="Virgil, Segoe UI Emoji" font-size="36px" fill="#1e1e1e" text-anchor="start" style="white-space: pre;" direction="ltr" dominant-baseline="text-before-edge">Http</text></g><g transform="translate(812 86.32760136003589) rotate(0 76.39202880859375 22.5)"><text x="0" y="0" font-family="Virgil, Segoe UI Emoji" font-size="36px" fill="#1e1e1e" text-anchor="start" style="white-space: pre;" direction="ltr" dominant-baseline="text-before-edge">consumer</text></g><g stroke-linecap="round"><g transform="translate(1127 84.32760136003589) rotate(0 -70 1)"><path d="M0.32 0.41 C-23.11 0.68, -117.77 1.56, -141.19 1.75 M-0.97 -0.42 C-24 0.03, -115.75 2.65, -139.11 3.15" stroke="#2f9e44" stroke-width="4" fill="none"></path></g><g transform="translate(1127 84.32760136003589) rotate(0 -70 1)"><path d="M-115.84 -5.99 C-120.95 -5.64, -127.86 -1.77, -139.11 3.15 M-115.84 -5.99 C-122.49 -4.44, -128.6 -1.33, -139.11 3.15" stroke="#2f9e44" stroke-width="4" fill="none"></path></g><g transform="translate(1127 84.32760136003589) rotate(0 -70 1)"><path d="M-115.4 11.1 C-120.64 7.19, -127.66 6.79, -139.11 3.15 M-115.4 11.1 C-122.03 8.18, -128.25 6.8, -139.11 3.15" stroke="#2f9e44" stroke-width="4" fill="none"></path></g></g><mask></mask><g stroke-linecap="round"><g transform="translate(994 113.32760136003583) rotate(0 70 -1.5)"><path d="M1.08 -0.56 C24.21 -1.09, 116.87 -2.18, 139.91 -2.66 M0.18 1.77 C23.05 0.81, 115.31 -3.92, 138.91 -4.61" stroke="#2f9e44" stroke-width="4" fill="none"></path></g><g transform="translate(994 113.32760136003583) rotate(0 70 -1.5)"><path d="M115.79 4.91 C123.89 0.81, 134.45 -3.97, 138.91 -4.61 M115.79 4.91 C121.2 1.53, 127.84 -0.11, 138.91 -4.61" stroke="#2f9e44" stroke-width="4" fill="none"></path></g><g transform="translate(994 113.32760136003583) rotate(0 70 -1.5)"><path d="M115.08 -12.17 C123.53 -9.58, 134.37 -7.66, 138.91 -4.61 M115.08 -12.17 C120.66 -11.06, 127.49 -8.21, 138.91 -4.61" stroke="#2f9e44" stroke-width="4" fill="none"></path></g></g><mask></mask><g stroke-linecap="round"><g transform="translate(1145.3192447118654 25.645019501600643) rotate(0 68.59789267942824 74.50075235076307)" fill-rule="evenodd"><path d="M2.23 2.04 C2.12 24.21, -1.01 110.19, -1.39 134.62 C-1.78 159.05, -1.39 144.79, -0.06 148.63 C1.28 152.46, 1.31 155.64, 6.62 157.65 C11.93 159.65, 20.45 159.95, 31.83 160.65 C43.2 161.35, 61.63 161.98, 74.88 161.84 C88.13 161.71, 101.63 160.96, 111.33 159.86 C121.03 158.75, 128.83 156.96, 133.09 155.21 C137.36 153.45, 136.25 152.53, 136.92 149.34 C137.59 146.16, 137.51 158.9, 137.11 136.1 C136.72 113.3, 135.07 35, 134.57 12.51 C134.06 -9.97, 135.54 4.53, 134.1 1.22 C132.67 -2.09, 130.01 -4.9, 125.96 -7.33 C121.91 -9.76, 120.06 -12.62, 109.81 -13.35 C99.55 -14.08, 77.59 -12.03, 64.43 -11.71 C51.27 -11.39, 40.54 -12.16, 30.85 -11.42 C21.16 -10.68, 11.09 -9.06, 6.28 -7.25 C1.46 -5.43, 3.31 -1.32, 1.99 -0.52 C0.66 0.28, -1.56 -2.28, -1.69 -2.43" stroke="none" stroke-width="0" fill="#b2f2bb" fill-rule="evenodd"></path><path d="M0.12 -0.25 C0.19 22.28, -0.66 109.49, -0.61 134.3 C-0.56 159.12, -0.75 145.17, 0.41 148.63 C1.56 152.09, 1.21 152.88, 6.31 155.06 C11.41 157.23, 19.75 160.46, 31 161.69 C42.25 162.92, 60.32 162.56, 73.82 162.42 C87.31 162.29, 101.92 162.41, 111.99 160.87 C122.07 159.34, 130.1 155.49, 134.27 153.22 C138.43 150.94, 136.42 150.05, 136.96 147.22 C137.51 144.4, 137.65 158.98, 137.54 136.25 C137.43 113.52, 136.36 33.56, 136.3 10.85 C136.23 -11.86, 138.73 3.08, 137.16 -0.01 C135.59 -3.1, 131.48 -5.87, 126.86 -7.7 C122.24 -9.52, 119.51 -9.97, 109.44 -10.98 C99.37 -11.98, 79.11 -13.35, 66.46 -13.7 C53.81 -14.06, 43.51 -14.56, 33.56 -13.11 C23.61 -11.67, 12.54 -7.22, 6.76 -5.05 C0.97 -2.88, 0.12 -1.01, -1.14 -0.1 C-2.4 0.81, -0.94 0.38, -0.81 0.41 M-1.27 -1.42 C-0.75 20.81, 1.36 107.18, 1.54 132.35 C1.73 157.53, -0.92 145.73, -0.16 149.63 C0.61 153.53, 0.65 153.66, 6.16 155.76 C11.66 157.86, 21.89 160.75, 32.85 162.24 C43.82 163.72, 58.7 165.08, 71.92 164.67 C85.15 164.27, 101.95 161.81, 112.21 159.8 C122.46 157.78, 129.58 154.4, 133.44 152.61 C137.3 150.81, 134.51 151.79, 135.35 149.02 C136.18 146.25, 138.29 158.9, 138.45 136.01 C138.6 113.11, 136.64 34.32, 136.28 11.63 C135.91 -11.07, 137.83 3.25, 136.25 -0.16 C134.67 -3.57, 131.34 -6.99, 126.81 -8.82 C122.28 -10.66, 119.07 -10.32, 109.06 -11.19 C99.06 -12.06, 79.71 -13.85, 66.77 -14.04 C53.84 -14.23, 41.59 -14.01, 31.46 -12.33 C21.32 -10.65, 11.09 -6.04, 5.96 -3.94 C0.83 -1.84, 1.5 -0.55, 0.68 0.26 C-0.14 1.06, 1.16 1.2, 1.04 0.89" stroke="#69db7c" stroke-width="1" fill="none"></path></g></g><mask></mask><g stroke-linecap="round" transform="translate(1144.4386716799172 10) rotate(0 68.23167895841698 13.799343741341772)"><path d="M44.21 1.68 C53.94 0.6, 68.69 -0.82, 79.83 -0.48 C90.97 -0.14, 102.39 2.23, 111.04 3.72 C119.7 5.22, 127.84 6.54, 131.76 8.49 C135.67 10.44, 136.25 12.99, 134.53 15.4 C132.81 17.81, 128.74 20.99, 121.45 22.94 C114.16 24.89, 101.47 26.44, 90.77 27.12 C80.07 27.8, 68.29 27.34, 57.23 27.01 C46.16 26.68, 33.34 26.53, 24.39 25.14 C15.44 23.74, 7.3 20.98, 3.52 18.64 C-0.26 16.31, -0.34 13.34, 1.7 11.12 C3.74 8.91, 7.36 7.14, 15.77 5.34 C24.17 3.54, 44.82 1.13, 52.11 0.31 C59.4 -0.5, 59.26 0.1, 59.52 0.45 M98.58 2.46 C108.75 3.3, 119.28 5.53, 125.7 7.48 C132.12 9.42, 136.26 12.06, 137.08 14.15 C137.91 16.24, 135.88 18.25, 130.65 19.99 C125.42 21.73, 115.3 23.31, 105.7 24.59 C96.1 25.87, 84.25 27.49, 73.06 27.68 C61.87 27.87, 48.86 26.73, 38.57 25.71 C28.28 24.69, 17.54 23.41, 11.34 21.55 C5.15 19.69, 2.06 17.01, 1.41 14.55 C0.76 12.1, 2.5 8.94, 7.44 6.81 C12.37 4.69, 21.62 2.69, 31.02 1.79 C40.41 0.89, 52.59 1.41, 63.81 1.41 C75.02 1.41, 92.52 1.81, 98.3 1.8 C104.09 1.78, 99.07 1.17, 98.54 1.3" stroke="none" stroke-width="0" fill="#b2f2bb"></path><path d="M78.53 -0.35 C89.47 0, 102.8 2.24, 111.62 3.67 C120.43 5.1, 127.37 6.11, 131.43 8.22 C135.5 10.33, 137.8 13.93, 136.01 16.33 C134.22 18.73, 128.06 20.85, 120.67 22.62 C113.28 24.38, 102.19 26.21, 91.68 26.92 C81.18 27.64, 68.78 27.16, 57.63 26.88 C46.48 26.61, 33.56 26.73, 24.76 25.29 C15.97 23.85, 8.94 20.45, 4.88 18.26 C0.81 16.06, -1.34 14.31, 0.4 12.11 C2.14 9.91, 8 6.78, 15.33 5.05 C22.66 3.32, 32.95 2.38, 44.38 1.73 C55.8 1.08, 76.26 1.41, 83.89 1.13 C91.51 0.86, 90.28 0.11, 90.13 0.1 M79.51 1.18 C90.62 1.55, 104.76 3.09, 113.37 4.47 C121.98 5.84, 127.5 7.56, 131.18 9.45 C134.85 11.34, 137.21 13.42, 135.4 15.8 C133.59 18.19, 127.56 22.02, 120.3 23.77 C113.03 25.52, 102.25 25.83, 91.8 26.3 C81.34 26.77, 68.93 26.97, 57.56 26.6 C46.19 26.23, 32.54 25.27, 23.56 24.08 C14.58 22.88, 7.42 21.43, 3.67 19.45 C-0.08 17.46, -0.96 14.56, 1.06 12.16 C3.08 9.77, 8.75 6.85, 15.79 5.1 C22.84 3.34, 32.85 2.26, 43.33 1.62 C53.81 0.99, 72.75 1.49, 78.68 1.28 C84.6 1.07, 78.73 0.54, 78.85 0.34" stroke="#69db7c" stroke-width="1" fill="none"></path></g><g transform="translate(1178.3342589770955 71.87238009088037) rotate(0 15.26641845703125 32.1072519601274)"><text x="0" y="0" font-family="Cascadia, Segoe UI Emoji" font-size="52.1197634076083px" fill="#69db7c" text-anchor="start" style="white-space: pre;" direction="ltr" dominant-baseline="text-before-edge">{</text></g><g transform="translate(1217.59585099789 72.72270493423093) rotate(0 15.3533935546875 32.0576312676379)"><text x="0" y="0" font-family="Cascadia, Segoe UI Emoji" font-size="52.41422534776428px" fill="#69db7c" text-anchor="start" style="white-space: pre;" direction="ltr" dominant-baseline="text-before-edge">}</text></g><g transform="translate(1171.286491394043 188.78101068125477) rotate(0 41.21350860595703 23.069230931438085)"><text x="41.21350860595703" y="0" font-family="Virgil, Segoe UI Emoji" font-size="32.399086049024774px" fill="#69db7c" text-anchor="middle" style="white-space: pre;" direction="ltr" dominant-baseline="text-before-edge">Faiss</text></g><g stroke-linecap="round"><g transform="translate(613.4743535047746 240.71568362515347) rotate(0 64.52308262827137 70.07530424091631)" fill-rule="evenodd"><path d="M1.17 0.09 C1.36 20.58, 0.35 101.73, 0.34 125.23 C0.32 148.73, 0.27 137.42, 1.1 141.08 C1.93 144.75, 0.46 145.42, 5.31 147.2 C10.16 148.97, 19.26 150.31, 30.19 151.75 C41.12 153.19, 58.58 155.98, 70.89 155.83 C83.21 155.67, 95.04 152.65, 104.08 150.82 C113.12 148.98, 120.96 146.43, 125.15 144.8 C129.34 143.18, 128.87 143.57, 129.22 141.07 C129.57 138.56, 127.17 151.13, 127.24 129.77 C127.31 108.4, 129.67 34.44, 129.66 12.86 C129.65 -8.73, 128.81 3.13, 127.17 0.26 C125.52 -2.61, 123.62 -2.91, 119.78 -4.37 C115.93 -5.84, 113.74 -6.81, 104.11 -8.52 C94.48 -10.22, 74.56 -14.14, 62 -14.59 C49.45 -15.04, 38.31 -13.05, 28.77 -11.24 C19.24 -9.43, 9.74 -5.39, 4.8 -3.74 C-0.14 -2.08, -0.07 -1.61, -0.86 -1.32 C-1.65 -1.02, 0.18 -2.13, 0.04 -1.96" stroke="none" stroke-width="0" fill="#a5d8ff" fill-rule="evenodd"></path><path d="M0.78 0.2 C0.55 21.23, -0.3 102.8, -0.5 126.36 C-0.7 149.92, -1.76 138.25, -0.42 141.56 C0.92 144.87, 2.41 144.53, 7.55 146.24 C12.69 147.94, 20.09 150.71, 30.41 151.79 C40.72 152.87, 57 152.71, 69.44 152.73 C81.88 152.75, 95.63 153.13, 105.06 151.92 C114.5 150.7, 122.12 147.64, 126.04 145.44 C129.97 143.24, 128.07 141.57, 128.63 138.72 C129.2 135.86, 129.54 149.6, 129.42 128.32 C129.3 107.04, 128.12 32.55, 127.93 11.06 C127.73 -10.42, 129.54 2.3, 128.24 -0.6 C126.95 -3.49, 124.46 -4.67, 120.16 -6.31 C115.86 -7.95, 112.06 -9.43, 102.44 -10.43 C92.82 -11.44, 74.24 -12.04, 62.44 -12.32 C50.64 -12.6, 41.15 -13.15, 31.64 -12.12 C22.13 -11.08, 10.58 -7.99, 5.38 -6.1 C0.18 -4.21, 1.39 -1.93, 0.43 -0.79 C-0.53 0.36, -0.12 0.48, -0.37 0.76 M-0.26 -0.74 C-0.21 19.89, 1.91 100.99, 1.72 124.42 C1.53 147.85, -2.51 136.06, -1.42 139.85 C-0.32 143.64, 3.15 145.12, 8.27 147.17 C13.38 149.23, 19.4 150.87, 29.28 152.17 C39.16 153.47, 54.88 155.15, 67.53 154.98 C80.17 154.81, 95.56 152.71, 105.16 151.14 C114.75 149.57, 121.45 147.29, 125.08 145.54 C128.7 143.8, 126.04 143.57, 126.91 140.67 C127.79 137.77, 130.2 149.54, 130.35 128.15 C130.49 106.75, 128.36 33.84, 127.79 12.31 C127.21 -9.23, 128.1 2.13, 126.9 -1.07 C125.7 -4.28, 124.76 -5.32, 120.57 -6.93 C116.38 -8.53, 111.42 -9.8, 101.78 -10.71 C92.13 -11.62, 74.75 -12.29, 62.71 -12.37 C50.68 -12.45, 39.32 -12.3, 29.54 -11.19 C19.77 -10.08, 9.07 -7.45, 4.04 -5.72 C-0.98 -3.99, -0.2 -1.98, -0.59 -0.79 C-0.98 0.4, 1.8 1.36, 1.7 1.42" stroke="#1971c2" stroke-width="1" fill="none"></path></g></g><mask></mask><g stroke-linecap="round" transform="translate(612.6460877333157 226.00000000000006) rotate(0 64.17862251065753 12.979643567178087)"><path d="M86.18 0.07 C96.69 0.67, 108.61 2.97, 115.73 4.92 C122.84 6.87, 128.18 9.37, 128.88 11.75 C129.58 14.14, 125.75 17.25, 119.95 19.24 C114.14 21.23, 104.13 22.53, 94.03 23.69 C83.94 24.86, 70.9 26.4, 59.36 26.21 C47.81 26.03, 34.11 23.98, 24.74 22.59 C15.38 21.19, 6.89 20.04, 3.18 17.87 C-0.54 15.69, -0.03 11.96, 2.46 9.51 C4.96 7.07, 10 4.87, 18.16 3.21 C26.31 1.55, 38.27 -0.4, 51.39 -0.46 C64.52 -0.53, 87.51 2.23, 96.91 2.83 C106.31 3.43, 108.32 3.19, 107.79 3.14 M42.3 1.26 C52.4 0.38, 67.88 -0.2, 79.04 0.14 C90.2 0.49, 101.31 1.5, 109.26 3.35 C117.2 5.21, 124.09 8.99, 126.72 11.29 C129.34 13.6, 129.23 15, 125.01 17.19 C120.79 19.37, 110.7 22.88, 101.38 24.4 C92.07 25.92, 80.45 26.45, 69.13 26.29 C57.82 26.13, 43.88 24.81, 33.5 23.44 C23.13 22.06, 12.24 19.88, 6.88 18.06 C1.53 16.23, 0.56 14.53, 1.38 12.48 C2.2 10.43, 5.19 7.73, 11.81 5.76 C18.42 3.78, 35.97 1.46, 41.05 0.61 C46.14 -0.24, 42.05 0.26, 42.32 0.63" stroke="none" stroke-width="0" fill="#a5d8ff"></path><path d="M52.23 0.76 C62.7 0.14, 77.8 0.85, 88.46 1.5 C99.11 2.15, 109.35 2.82, 116.14 4.66 C122.93 6.5, 128.53 10.08, 129.21 12.55 C129.89 15.02, 126.32 17.43, 120.22 19.48 C114.13 21.52, 103.01 23.87, 92.65 24.81 C82.28 25.76, 69.4 25.42, 58.05 25.16 C46.7 24.89, 33.67 24.52, 24.54 23.23 C15.42 21.94, 7.01 19.64, 3.3 17.42 C-0.42 15.2, -0.56 12.23, 2.24 9.9 C5.05 7.57, 10.57 4.93, 20.1 3.43 C29.63 1.93, 52.07 1.44, 59.43 0.89 C66.79 0.34, 64.4 -0.01, 64.26 0.13 M44.09 1.68 C54.33 0.93, 69.65 1.41, 81.12 1.87 C92.6 2.33, 105.21 2.99, 112.95 4.43 C120.68 5.87, 125.79 8.14, 127.55 10.51 C129.31 12.89, 128.32 16.4, 123.5 18.69 C118.68 20.97, 108.36 23.01, 98.63 24.21 C88.9 25.42, 76.35 25.72, 65.13 25.92 C53.92 26.13, 41.39 26.67, 31.34 25.43 C21.3 24.19, 10.06 20.83, 4.85 18.49 C-0.36 16.15, -1.7 13.54, 0.08 11.4 C1.86 9.26, 8.17 7.25, 15.53 5.64 C22.9 4.04, 39.16 2.35, 44.29 1.78 C49.42 1.21, 45.93 2.13, 46.34 2.21" stroke="#1971c2" stroke-width="1" fill="none"></path></g><g transform="translate(644.5282300919762 284.19707482368335) rotate(0 14.36004638671875 30.200036623155526)"><text x="0" y="0" font-family="Cascadia, Segoe UI Emoji" font-size="49.02377710975319px" fill="#1971c2" text-anchor="start" style="white-space: pre;" direction="ltr" dominant-baseline="text-before-edge">{</text></g><g transform="translate(681.4576290447058 284.9968891909377) rotate(0 14.44244384765625 30.153363468682194)"><text x="0" y="0" font-family="Cascadia, Segoe UI Emoji" font-size="49.30074760189868px" fill="#1971c2" text-anchor="start" style="white-space: pre;" direction="ltr" dominant-baseline="text-before-edge">}</text></g><g transform="translate(638.6660742911317 395.1017690789712) rotate(0 38.939002990722656 21.698886589940916)"><text x="38.939002990722656" y="0" font-family="Virgil, Segoe UI Emoji" font-size="30.474535362055104px" fill="#1971c2" text-anchor="middle" style="white-space: pre;" direction="ltr" dominant-baseline="text-before-edge">Redis</text></g><g stroke-linecap="round"><g transform="translate(643.5473500789321 -12.833968373722257) rotate(90.70573987266236 23.214727385353854 101.00249540390107)" fill-rule="evenodd"><path d="M1.81 -0.77 L44.49 -2.03 L47.61 181.55 L20.51 202.81 L2.4 181.15 L-0.86 0.01" stroke="none" stroke-width="0" fill="#ffec99" fill-rule="evenodd"></path><path d="M0 0 C14.99 -0.85, 29.15 0.21, 46.43 -0.18 M0 0 C18.13 -0.1, 34.94 0.01, 46.43 -0.18 M46.43 -0.18 C48.71 49.93, 47.8 96.18, 46.03 181.98 M46.43 -0.18 C47.48 65.68, 46.97 129.56, 46.03 181.98 M46.03 181.98 C38.83 185.95, 31.41 192.79, 22.33 202.18 M46.03 181.98 C38 188.02, 29.54 196.25, 22.33 202.18 M22.33 202.18 C16.47 194, 7.03 190.8, 0.73 180.86 M22.33 202.18 C17.09 197.25, 12.06 192.1, 0.73 180.86 M0.73 180.86 C2.45 137.19, -0.04 94.65, 0 0 M0.73 180.86 C0.99 124.42, 1.01 69.63, 0 0 M0 0 C0 0, 0 0, 0 0 M0 0 C0 0, 0 0, 0 0" stroke="#f08c00" stroke-width="1" fill="none"></path></g></g><mask></mask><g stroke-linecap="round" transform="translate(724.6686917229117 73.37582734363508) rotate(180.8672873820362 18.886388622405775 12.553228365790744)"><path d="M0.46 0.21 L36.99 -0.95 L36.78 25.19 L-0.43 25.36" stroke="none" stroke-width="0" fill="#ffec99"></path><path d="M0 0 C13.71 0.33, 27.48 -0.02, 37.77 0 M0 0 C8.57 0, 17.93 0.47, 37.77 0 M37.77 0 C37.88 4.94, 38.41 10.88, 37.77 25.11 M37.77 0 C37.8 4.64, 37.78 9.9, 37.77 25.11 M37.77 25.11 C28.24 24.51, 19.72 25.15, 0 25.11 M37.77 25.11 C27.77 25.49, 18.63 25.07, 0 25.11 M0 25.11 C-0.95 19.32, -0.69 12.13, 0 0 M0 25.11 C0.05 15.3, -0.34 5.25, 0 0" stroke="#f08c00" stroke-width="1" fill="none"></path></g><g stroke-linecap="round"><g transform="translate(743.3983969756282 98.18271655637267) rotate(180.8672873820362 -0.46846496304851826 -5.930220356180968)" fill-rule="evenodd"><path d="M-0.78 -0.95 L16.92 -11.77 L-19.28 -11.46 L-0.29 -0.63" stroke="none" stroke-width="0" fill="#ffec99" fill-rule="evenodd"></path><path d="M0 0 C5.72 -3.33, 9.14 -6.31, 17.92 -11.86 M0 0 C4.7 -2.77, 9.23 -6.14, 17.92 -11.86 M17.92 -11.86 C4.4 -11.39, -11.27 -11.45, -18.85 -11.72 M17.92 -11.86 C4.68 -12.15, -8.75 -11.95, -18.85 -11.72 M-18.85 -11.72 C-14.59 -9, -11.4 -6.96, 0 0 M-18.85 -11.72 C-14.23 -8.87, -9.82 -5.85, 0 0 M0 0 C0 0, 0 0, 0 0 M0 0 C0 0, 0 0, 0 0" stroke="#f08c00" stroke-width="1" fill="none"></path></g></g><mask></mask><g stroke-linecap="round"><g transform="translate(634.9831814685022 83.81290860397775) rotate(180.8672873820362 23.731087998420207 -0.4396289371007924)"><path d="M0 0 C14.97 -0.09, 30.85 -1.53, 47.46 -0.88" stroke="#f08c00" stroke-width="1.5" fill="none" stroke-dasharray="1.5 7"></path></g></g><mask></mask><g stroke-linecap="round" transform="translate(679.5251603796078 72.47498634473556) rotate(180.8672873820362 18.886388622405775 12.553228365790744)"><path d="M-0.43 0.26 L37.49 -0.63 L37.73 25.51 L-0.77 24.93" stroke="none" stroke-width="0" fill="#ffec99"></path><path d="M0 0 C10.75 -1, 21.99 -0.37, 37.77 0 M0 0 C14.84 -0.06, 28.71 0.21, 37.77 0 M37.77 0 C38.24 8.68, 36.84 17.32, 37.77 25.11 M37.77 0 C37.25 6.38, 37.49 13.28, 37.77 25.11 M37.77 25.11 C25.1 24.27, 14.5 25.19, 0 25.11 M37.77 25.11 C25.53 24.74, 14.51 24.88, 0 25.11 M0 25.11 C-0.18 16.2, -0.28 6.43, 0 0 M0 25.11 C-0.45 19.14, -0.56 14.16, 0 0" stroke="#f08c00" stroke-width="1" fill="none"></path></g><g stroke-linecap="round"><g transform="translate(698.210943383041 98.21292714351756) rotate(180.8672873820362 -0.46846496304851826 -5.930220356180968)" fill-rule="evenodd"><path d="M-0.29 -0.63 L17.87 -11.46 L-19.63 -11.89 L-0.42 -0.09" stroke="none" stroke-width="0" fill="#ffec99" fill-rule="evenodd"></path><path d="M0 0 C5.59 -4.02, 12.22 -8.38, 17.92 -11.86 M0 0 C5.99 -3.8, 12.54 -8.68, 17.92 -11.86 M17.92 -11.86 C4.8 -11.9, -7.09 -12.34, -18.85 -11.72 M17.92 -11.86 C7.03 -11.72, -3.32 -12.07, -18.85 -11.72 M-18.85 -11.72 C-12.66 -8.25, -8.23 -5.41, 0 0 M-18.85 -11.72 C-11.89 -7.9, -5.58 -3.1, 0 0 M0 0 C0 0, 0 0, 0 0 M0 0 C0 0, 0 0, 0 0" stroke="#f08c00" stroke-width="1" fill="none"></path></g></g><mask></mask><g stroke-linecap="round" transform="translate(598.49410304708 72.11812488622724) rotate(180.8672873820362 18.886388622405775 12.553228365790744)"><path d="M-0.05 0.4 L37 -0.18 L37.35 25.02 L0.84 24.16" stroke="none" stroke-width="0" fill="#ffec99"></path><path d="M0 0 C8.5 -0.86, 15.81 0.9, 37.77 0 M0 0 C11.74 -0.6, 23.2 0.18, 37.77 0 M37.77 0 C37.28 6.9, 37.57 14.03, 37.77 25.11 M37.77 0 C37.82 6.43, 37.61 13.03, 37.77 25.11 M37.77 25.11 C29.61 24.83, 21.61 24.39, 0 25.11 M37.77 25.11 C30.11 25.42, 21.87 24.95, 0 25.11 M0 25.11 C-0.79 17.8, 0.23 8.79, 0 0 M0 25.11 C-0.09 20.09, -0.02 14.5, 0 0" stroke="#f08c00" stroke-width="1" fill="none"></path></g><g stroke-linecap="round"><g transform="translate(616.4063874654039 98.75374244479957) rotate(180.8672873820362 -0.46846496304851826 -5.930220356180968)" fill-rule="evenodd"><path d="M-0.77 -0.18 L17.49 -11.95 L-18.02 -12.66 L-0.69 0.06" stroke="none" stroke-width="0" fill="#ffec99" fill-rule="evenodd"></path><path d="M0 0 C5.16 -2.24, 9.53 -6.5, 17.92 -11.86 M0 0 C6.57 -3.87, 12.8 -8.82, 17.92 -11.86 M17.92 -11.86 C7.08 -12.82, -3.91 -12.31, -18.85 -11.72 M17.92 -11.86 C5.61 -12.17, -6.89 -11.36, -18.85 -11.72 M-18.85 -11.72 C-12.51 -8.77, -7.98 -3.39, 0 0 M-18.85 -11.72 C-14.35 -9.06, -9.84 -6.33, 0 0 M0 0 C0 0, 0 0, 0 0 M0 0 C0 0, 0 0, 0 0" stroke="#f08c00" stroke-width="1" fill="none"></path></g></g><mask></mask><g stroke-opacity="0.9" fill-opacity="0.9" stroke-linecap="round" transform="translate(380.65304751351687 68.43146081366683) rotate(0 33.638141792216175 97.3961405463691)"><path d="M-0.94 0 L67.91 0.75 L66.74 194.67 L-0.1 193.14" stroke="none" stroke-width="0" fill="#eeeeee"></path><path d="M0 0 C21.01 0.84, 39.31 1.13, 67.28 0 M0 0 C17.02 0.05, 32 0.87, 67.28 0 M67.28 0 C68.92 75.86, 65.22 148.99, 67.28 194.79 M67.28 0 C67.43 73.75, 66.93 148.53, 67.28 194.79 M67.28 194.79 C47.6 193.18, 29.3 196.25, 0 194.79 M67.28 194.79 C44.78 194.27, 23.45 194.66, 0 194.79 M0 194.79 C0.31 147.84, -0.81 99.01, 0 0 M0 194.79 C-0.99 136.37, 0.39 79.59, 0 0" stroke="#000000" stroke-width="1" fill="none"></path></g><g stroke-linecap="round" transform="translate(422.2885900922565 135.89168056000983) rotate(0 8.911354760200993 8.637159229117884)"><path d="M9.09 -0.24 C10.92 -0.41, 12.8 0.93, 14.26 2.06 C15.71 3.2, 17.41 4.83, 17.82 6.55 C18.23 8.27, 17.65 10.66, 16.7 12.38 C15.76 14.1, 13.96 16.11, 12.14 16.9 C10.33 17.69, 7.65 17.82, 5.82 17.11 C3.99 16.4, 2.07 14.34, 1.18 12.64 C0.28 10.95, 0.15 8.78, 0.45 6.95 C0.75 5.11, 1.45 2.73, 2.96 1.61 C4.48 0.5, 8.4 0.57, 9.54 0.28 C10.69 -0.02, 9.9 -0.25, 9.81 -0.15 M9.89 0.1 C11.78 0.33, 14.59 1.17, 15.8 2.53 C17 3.88, 17.1 6.17, 17.11 8.22 C17.11 10.27, 16.88 13.32, 15.84 14.86 C14.79 16.4, 12.64 17.25, 10.84 17.46 C9.05 17.68, 6.85 17.19, 5.06 16.14 C3.27 15.1, 0.75 13.07, 0.1 11.2 C-0.56 9.32, 0.42 6.6, 1.12 4.91 C1.82 3.23, 2.74 1.95, 4.3 1.07 C5.87 0.2, 9.45 -0.34, 10.53 -0.34 C11.61 -0.34, 10.68 0.85, 10.77 1.06" stroke="none" stroke-width="0" fill="#868e96"></path><path d="M9.45 0.41 C11.3 0.39, 13.62 0.91, 15.07 2.2 C16.52 3.5, 17.93 6.35, 18.13 8.19 C18.32 10.03, 17.31 11.74, 16.25 13.25 C15.19 14.75, 13.68 16.7, 11.77 17.22 C9.86 17.73, 6.51 17.19, 4.76 16.36 C3.02 15.53, 2.02 13.84, 1.29 12.25 C0.56 10.67, 0.02 8.6, 0.39 6.85 C0.77 5.09, 1.9 2.86, 3.53 1.71 C5.15 0.57, 9.06 0.26, 10.13 -0.03 C11.2 -0.31, 10.02 -0.1, 9.95 0 M9.25 -0.64 C10.93 -0.79, 13.03 0.71, 14.56 2.06 C16.09 3.41, 18.13 5.62, 18.41 7.47 C18.69 9.31, 17.35 11.51, 16.23 13.1 C15.12 14.69, 13.38 16.43, 11.72 17.01 C10.07 17.59, 8.03 17.27, 6.31 16.59 C4.58 15.91, 2.39 14.56, 1.37 12.92 C0.35 11.28, -0.03 8.71, 0.16 6.77 C0.35 4.83, 0.98 2.46, 2.49 1.3 C4 0.13, 8.23 -0.04, 9.24 -0.22 C10.26 -0.41, 8.57 -0.05, 8.55 0.17" stroke="#000000" stroke-width="1" fill="none"></path></g><g stroke-linecap="round" transform="translate(387.4758518372814 133.10006411913582) rotate(0 8.911354760200993 8.637159229117884)"><path d="M10.13 0.24 C11.92 0.39, 14.59 1.27, 15.87 2.59 C17.16 3.9, 17.85 6.17, 17.84 8.13 C17.84 10.09, 17.09 12.8, 15.84 14.35 C14.59 15.91, 12.24 17.23, 10.34 17.46 C8.43 17.69, 5.98 16.75, 4.41 15.72 C2.83 14.7, 1.55 13.07, 0.88 11.32 C0.21 9.57, -0.27 6.88, 0.39 5.23 C1.06 3.59, 3.09 2.35, 4.87 1.45 C6.64 0.55, 10.05 0, 11.02 -0.17 C12 -0.34, 10.75 0.29, 10.71 0.43 M6.7 -0.41 C8.43 -1.03, 10.33 -0.71, 12.08 0.3 C13.84 1.31, 16.25 3.83, 17.24 5.66 C18.23 7.49, 18.45 9.59, 18.02 11.3 C17.58 13, 16.38 14.94, 14.65 15.89 C12.91 16.83, 9.54 17.28, 7.61 16.97 C5.68 16.66, 4.36 15.31, 3.05 14.02 C1.74 12.73, -0.02 11.07, -0.26 9.25 C-0.5 7.42, 0.41 4.46, 1.61 3.08 C2.81 1.71, 5.97 1.45, 6.93 0.99 C7.9 0.53, 7.47 0.2, 7.4 0.33" stroke="none" stroke-width="0" fill="#868e96"></path><path d="M8.88 -0.25 C10.77 -0.35, 13.54 1.26, 15.01 2.46 C16.47 3.65, 17.32 5.11, 17.66 6.91 C18 8.71, 18.09 11.63, 17.06 13.24 C16.02 14.86, 13.25 16.05, 11.45 16.61 C9.65 17.17, 7.93 17.17, 6.24 16.61 C4.55 16.05, 2.35 14.84, 1.3 13.27 C0.25 11.7, -0.38 9.09, -0.04 7.2 C0.3 5.31, 1.89 3.16, 3.36 1.92 C4.83 0.67, 7.81 0.06, 8.79 -0.28 C9.77 -0.62, 9.19 -0.39, 9.25 -0.12 M9.57 0.07 C11.45 0.26, 14.6 1.51, 15.9 2.83 C17.2 4.15, 17.37 6.15, 17.39 7.98 C17.4 9.81, 16.95 12.34, 16 13.81 C15.05 15.28, 13.47 16.37, 11.7 16.81 C9.93 17.24, 7.16 17.25, 5.36 16.45 C3.56 15.64, 1.84 13.75, 0.88 11.96 C-0.08 10.17, -0.94 7.48, -0.4 5.72 C0.14 3.95, 2.48 2.31, 4.1 1.37 C5.71 0.42, 8.33 0.18, 9.29 0.03 C10.25 -0.12, 9.85 0.35, 9.86 0.48" stroke="#000000" stroke-width="1" fill="none"></path></g><g stroke-linecap="round" transform="translate(422.7632870154348 184.73606427844067) rotate(0 8.911354760200993 8.637159229117898)"><path d="M8 -0.42 C9.84 -0.83, 12.22 -0.2, 13.81 0.92 C15.39 2.05, 17 4.41, 17.52 6.32 C18.05 8.22, 17.73 10.75, 16.95 12.35 C16.18 13.96, 14.48 15.21, 12.86 15.94 C11.24 16.67, 9.08 17.18, 7.21 16.75 C5.34 16.32, 2.77 14.72, 1.64 13.34 C0.52 11.95, 0.25 10.26, 0.45 8.43 C0.64 6.61, 1.49 3.79, 2.82 2.4 C4.14 1, 7.29 0.51, 8.39 0.08 C9.49 -0.35, 9.47 -0.24, 9.41 -0.19 M8.01 -0.56 C9.86 -0.5, 13 1.16, 14.7 2.46 C16.39 3.77, 17.73 5.52, 18.19 7.26 C18.65 9, 18.53 11.37, 17.46 12.9 C16.38 14.43, 13.55 15.89, 11.74 16.43 C9.93 16.98, 8.36 16.74, 6.57 16.18 C4.78 15.62, 2.1 14.66, 1 13.1 C-0.09 11.54, -0.35 8.52, 0.03 6.82 C0.4 5.11, 1.69 4.02, 3.24 2.87 C4.79 1.72, 8.51 0.24, 9.35 -0.1 C10.18 -0.43, 8.4 0.74, 8.25 0.85" stroke="none" stroke-width="0" fill="#868e96"></path><path d="M10.98 0.58 C12.79 0.81, 14.61 1.55, 15.82 2.96 C17.03 4.38, 18.38 7.2, 18.26 9.07 C18.15 10.94, 16.4 12.84, 15.14 14.17 C13.88 15.49, 12.48 16.67, 10.69 17.04 C8.9 17.4, 6.16 17.29, 4.42 16.37 C2.69 15.45, 0.91 13.34, 0.3 11.52 C-0.31 9.7, 0.1 7.22, 0.75 5.44 C1.41 3.65, 2.54 1.71, 4.21 0.79 C5.88 -0.13, 9.59 -0.11, 10.75 -0.08 C11.91 -0.06, 11.15 0.69, 11.17 0.92 M7.74 0.53 C9.44 0.06, 11.13 0.29, 12.66 1.14 C14.19 1.99, 16.06 3.96, 16.92 5.62 C17.78 7.28, 18.35 9.39, 17.84 11.11 C17.32 12.82, 15.52 14.95, 13.84 15.9 C12.16 16.86, 9.77 17.19, 7.74 16.82 C5.7 16.46, 2.86 15.06, 1.62 13.72 C0.39 12.37, 0.36 10.48, 0.34 8.76 C0.33 7.03, 0.36 4.73, 1.51 3.35 C2.66 1.97, 6.36 0.98, 7.26 0.48 C8.15 -0.03, 6.87 0.33, 6.86 0.32" stroke="#000000" stroke-width="1" fill="none"></path></g><g stroke-linecap="round" transform="translate(422.1052177408483 86.09617700313748) rotate(0 8.911354760200993 8.637159229117884)"><path d="M9.43 -0.47 C11.24 -0.37, 13.73 1.13, 15.1 2.53 C16.46 3.93, 17.41 6.2, 17.61 7.94 C17.81 9.68, 17.26 11.52, 16.29 12.96 C15.33 14.41, 13.65 16.09, 11.82 16.61 C9.98 17.13, 7 16.73, 5.26 16.1 C3.53 15.46, 2.16 14.43, 1.39 12.8 C0.62 11.18, 0.29 8.17, 0.64 6.33 C1 4.49, 1.97 2.9, 3.53 1.78 C5.09 0.67, 9.04 0.01, 10.01 -0.33 C10.97 -0.67, 9.41 -0.46, 9.32 -0.26 M7.13 0.77 C9.09 0.42, 11.73 0.48, 13.52 1.25 C15.31 2.02, 17.28 3.78, 17.86 5.39 C18.45 7, 17.63 9.29, 17.03 10.93 C16.43 12.58, 15.86 14.22, 14.27 15.26 C12.69 16.31, 9.51 17.4, 7.51 17.19 C5.52 16.98, 3.51 15.24, 2.29 14.01 C1.08 12.78, 0.18 11.57, 0.21 9.79 C0.23 8.01, 1.39 4.8, 2.43 3.32 C3.47 1.83, 5.75 1.43, 6.46 0.89 C7.17 0.35, 6.63 -0.05, 6.71 0.07" stroke="none" stroke-width="0" fill="#868e96"></path><path d="M7.78 -0.19 C9.58 -0.54, 12.66 0.63, 14.19 1.65 C15.72 2.67, 16.39 4.24, 16.94 5.94 C17.5 7.64, 18.17 10.07, 17.52 11.86 C16.88 13.65, 14.89 15.78, 13.09 16.66 C11.3 17.54, 8.6 17.63, 6.75 17.15 C4.89 16.66, 3.15 15.3, 1.96 13.76 C0.77 12.22, -0.43 9.81, -0.38 7.92 C-0.34 6.04, 0.77 3.69, 2.21 2.45 C3.64 1.22, 7.11 0.83, 8.21 0.49 C9.31 0.15, 8.85 0.35, 8.79 0.4 M8.63 0.14 C10.28 0.04, 12.9 1.19, 14.49 2.35 C16.07 3.5, 17.77 5.3, 18.14 7.08 C18.52 8.86, 17.79 11.46, 16.75 13.01 C15.7 14.57, 13.82 15.92, 11.88 16.42 C9.93 16.92, 6.8 16.62, 5.07 15.99 C3.33 15.36, 2.35 14.13, 1.48 12.64 C0.6 11.15, -0.54 8.77, -0.2 7.03 C0.14 5.3, 2 3.41, 3.51 2.23 C5.01 1.05, 7.91 0.4, 8.82 -0.04 C9.74 -0.49, 8.87 -0.67, 8.98 -0.45" stroke="#000000" stroke-width="1" fill="none"></path></g><g stroke-linecap="round"><g transform="translate(400.0916271680676 150.6832863664742) rotate(0 12.878737852961876 18.1391452229783)"><path d="M0 0 C10.41 14.6, 19.37 26.96, 25.76 36.28 M0 0 C9.94 14.61, 19.96 28.41, 25.76 36.28" stroke="#000000" stroke-width="1" fill="none"></path></g><g transform="translate(400.0916271680676 150.6832863664742) rotate(0 12.878737852961876 18.1391452229783)"><path d="M7.28 23.88 C14.95 29.45, 21.17 32.78, 25.76 36.28 M7.28 23.88 C14.34 29.19, 21.52 33.71, 25.76 36.28" stroke="#000000" stroke-width="1" fill="none"></path></g><g transform="translate(400.0916271680676 150.6832863664742) rotate(0 12.878737852961876 18.1391452229783)"><path d="M19.57 14.91 C22.6 23.83, 24.17 30.56, 25.76 36.28 M19.57 14.91 C21.88 23.64, 24.3 31.65, 25.76 36.28" stroke="#000000" stroke-width="1" fill="none"></path></g></g><mask></mask><g stroke-linecap="round"><g transform="translate(405.8692944459981 142.00314765300658) rotate(0 8.017536026015705 0.6374588741001048)"><path d="M0 0 C3.97 -0.16, 8.74 1, 16.04 1.27 M0 0 C3.14 0.29, 6.77 0.31, 16.04 1.27" stroke="#000000" stroke-width="1" fill="none"></path></g><g transform="translate(405.8692944459981 142.00314765300658) rotate(0 8.017536026015705 0.6374588741001048)"><path d="M8.25 3.31 C10.17 2.57, 12.5 2.47, 16.04 1.27 M8.25 3.31 C9.78 2.92, 11.55 2.38, 16.04 1.27" stroke="#000000" stroke-width="1" fill="none"></path></g><g transform="translate(405.8692944459981 142.00314765300658) rotate(0 8.017536026015705 0.6374588741001048)"><path d="M8.76 -2.16 C10.57 -1.54, 12.77 -0.26, 16.04 1.27 M8.76 -2.16 C10.18 -1.45, 11.84 -0.87, 16.04 1.27" stroke="#000000" stroke-width="1" fill="none"></path></g></g><mask></mask><g stroke-linecap="round"><g transform="translate(401.56063247193197 133.84230690518717) rotate(0 12.259649254308442 -15.700653614103658)"><path d="M0 0 C10.31 -11.47, 17.87 -24.36, 24.52 -31.4 M0 0 C9.71 -12.16, 18.79 -23.77, 24.52 -31.4" stroke="#000000" stroke-width="1" fill="none"></path></g><g transform="translate(401.56063247193197 133.84230690518717) rotate(0 12.259649254308442 -15.700653614103658)"><path d="M18.58 -12.39 C21.75 -19.14, 22.18 -27.28, 24.52 -31.4 M18.58 -12.39 C21.2 -19.81, 23.21 -26.71, 24.52 -31.4" stroke="#000000" stroke-width="1" fill="none"></path></g><g transform="translate(401.56063247193197 133.84230690518717) rotate(0 12.259649254308442 -15.700653614103658)"><path d="M7.75 -20.65 C15.07 -24.21, 19.66 -29.17, 24.52 -31.4 M7.75 -20.65 C14.48 -24.94, 20.61 -28.7, 24.52 -31.4" stroke="#000000" stroke-width="1" fill="none"></path></g></g><mask></mask><g stroke-linecap="round"><g transform="translate(473 142.32760136003589) rotate(0 48.5 -11.5)"><path d="M-0.71 0.42 C15.29 -3.32, 80.61 -19.15, 97 -23.15 M1.12 -0.41 C16.88 -3.89, 80.04 -17.99, 96.06 -21.69" stroke="#2f9e44" stroke-width="4" fill="none"></path></g><g transform="translate(473 142.32760136003589) rotate(0 48.5 -11.5)"><path d="M75.03 -8.16 C83.89 -13.23, 91.03 -17.33, 96.06 -21.69 M75.03 -8.16 C80.54 -12.27, 84.69 -14.54, 96.06 -21.69" stroke="#2f9e44" stroke-width="4" fill="none"></path></g><g transform="translate(473 142.32760136003589) rotate(0 48.5 -11.5)"><path d="M71.26 -24.84 C81.47 -23.48, 90.06 -21.17, 96.06 -21.69 M71.26 -24.84 C77.7 -24.75, 82.8 -22.82, 96.06 -21.69" stroke="#2f9e44" stroke-width="4" fill="none"></path></g></g><mask></mask><g stroke-linecap="round"><g transform="translate(467 200.32760136003589) rotate(0 63 50.50000000000003)"><path d="M-1.12 0.65 C19.87 17.69, 104.59 85.08, 125.79 101.94 M0.49 -0.05 C21.32 16.69, 103.93 83.66, 124.73 100.31" stroke="#2f9e44" stroke-width="4" fill="none"></path></g><g transform="translate(467 200.32760136003589) rotate(0 63 50.50000000000003)"><path d="M101.07 92.22 C108.9 94.41, 116.15 97.14, 124.73 100.31 M101.07 92.22 C110.45 94.47, 117.73 98.86, 124.73 100.31" stroke="#2f9e44" stroke-width="4" fill="none"></path></g><g transform="translate(467 200.32760136003589) rotate(0 63 50.50000000000003)"><path d="M111.81 78.91 C116.53 84.8, 120.71 91.34, 124.73 100.31 M111.81 78.91 C117.28 86.11, 120.62 95.38, 124.73 100.31" stroke="#2f9e44" stroke-width="4" fill="none"></path></g></g><mask></mask><g stroke-linecap="round"><g transform="translate(594 360.32760136003594) rotate(0 -62 -62.5)"><path d="M0.13 0.9 C-20.64 -19.75, -102.94 -103.1, -123.67 -124.05 M-1.26 0.33 C-22.24 -20.63, -103.8 -105.06, -124.45 -125.67" stroke="#2f9e44" stroke-width="4" fill="none"></path></g><g transform="translate(594 360.32760136003594) rotate(0 -62 -62.5)"><path d="M-101.89 -114.89 C-108.94 -118.41, -117.41 -123.45, -124.45 -125.67 M-101.89 -114.89 C-109.59 -117.98, -116.25 -121.76, -124.45 -125.67" stroke="#2f9e44" stroke-width="4" fill="none"></path></g><g transform="translate(594 360.32760136003594) rotate(0 -62 -62.5)"><path d="M-114.09 -102.91 C-116.49 -110.99, -120.34 -120.58, -124.45 -125.67 M-114.09 -102.91 C-117.86 -109.85, -120.63 -117.45, -124.45 -125.67" stroke="#2f9e44" stroke-width="4" fill="none"></path></g></g><mask></mask><g stroke-linecap="round"><g transform="translate(560 88.32760136003589) rotate(0 -47 17.5)"><path d="M0.37 0.23 C-15.1 6.03, -77.99 28.43, -93.62 34.15 M-0.89 -0.7 C-16.42 5.29, -78.87 29.19, -94.37 35.24" stroke="#2f9e44" stroke-width="4" fill="none"></path></g><g transform="translate(560 88.32760136003589) rotate(0 -47 17.5)"><path d="M-75.54 18.8 C-79.68 23.36, -85.91 27.52, -94.37 35.24 M-75.54 18.8 C-81 23.41, -85.96 26.93, -94.37 35.24" stroke="#2f9e44" stroke-width="4" fill="none"></path></g><g transform="translate(560 88.32760136003589) rotate(0 -47 17.5)"><path d="M-69.38 34.76 C-74.89 35.58, -82.56 35.98, -94.37 35.24 M-69.38 34.76 C-76.42 35.17, -82.99 34.52, -94.37 35.24" stroke="#2f9e44" stroke-width="4" fill="none"></path></g></g><mask></mask><g stroke-linecap="round" transform="translate(10 55.327601360035885) rotate(0 37.5 36.5)"><path d="M55.17 3.59 C61.63 6.11, 66.82 13.77, 70.21 20.11 C73.6 26.46, 76.63 34.84, 75.52 41.67 C74.4 48.51, 68.71 55.84, 63.52 61.14 C58.32 66.44, 51.49 72.11, 44.35 73.47 C37.21 74.83, 27.24 72.68, 20.68 69.3 C14.12 65.92, 8.34 59.45, 4.99 53.21 C1.64 46.98, -0.49 39.01, 0.59 31.9 C1.67 24.79, 6.22 15.81, 11.48 10.55 C16.73 5.29, 23.53 0.58, 32.1 0.32 C40.67 0.05, 56.93 6.44, 62.88 8.98 C68.82 11.52, 68.26 15.11, 67.79 15.56 M56.37 3.02 C62.67 5.68, 69.01 12.67, 71.91 19.5 C74.81 26.34, 75.13 36.62, 73.78 44.01 C72.43 51.4, 69.17 59.23, 63.81 63.87 C58.45 68.5, 49.09 70.9, 41.62 71.85 C34.14 72.79, 25.44 72.98, 18.96 69.55 C12.49 66.12, 5.64 57.71, 2.79 51.26 C-0.06 44.81, 0.58 37.75, 1.88 30.85 C3.18 23.95, 5.34 14.72, 10.6 9.85 C15.86 4.98, 26.09 2.44, 33.45 1.64 C40.8 0.85, 50.92 4.38, 54.73 5.06 C58.53 5.74, 56.62 5.21, 56.28 5.71" stroke="none" stroke-width="0" fill="#a5d8ff"></path><path d="M54.49 4.38 C60.8 7, 68.81 13.42, 71.97 19.9 C75.14 26.37, 74.81 36.19, 73.48 43.23 C72.15 50.27, 69.1 57.34, 63.98 62.14 C58.86 66.95, 50.07 71.16, 42.76 72.08 C35.44 73, 26.46 70.87, 20.1 67.67 C13.73 64.47, 7.91 59.31, 4.54 52.88 C1.18 46.45, -1.21 36.33, -0.1 29.08 C1 21.82, 5.74 14.21, 11.19 9.35 C16.64 4.48, 25.01 0.68, 32.58 -0.11 C40.14 -0.91, 52.49 3.5, 56.56 4.57 C60.64 5.63, 57.26 5.72, 57.04 6.27 M42.93 -0.41 C49.69 0.35, 59.36 7.01, 64.71 12.52 C70.05 18.04, 74.07 25.84, 75 32.69 C75.93 39.54, 73.97 47.31, 70.29 53.61 C66.61 59.92, 59.38 67.44, 52.91 70.51 C46.45 73.58, 38.56 73.61, 31.5 72.02 C24.44 70.42, 15.78 66.25, 10.55 60.94 C5.32 55.63, 1.06 46.89, 0.11 40.14 C-0.85 33.4, 1.42 26.62, 4.83 20.47 C8.23 14.32, 13.86 6.4, 20.53 3.24 C27.2 0.08, 40.75 1.83, 44.86 1.49 C48.96 1.15, 45.39 0.66, 45.17 1.19" stroke="#e03131" stroke-width="4" fill="none"></path></g><g stroke-linecap="round"><g transform="translate(51 131.32760136003589) rotate(0 0 31.5)"><path d="M0.02 0.42 C-0.06 11.13, 0.22 53.81, 0.4 64.14 M-1.43 -0.4 C-1.71 10.01, -0.73 51.98, -0.34 62.62" stroke="#e03131" stroke-width="4" fill="none"></path></g></g><mask></mask><g stroke-linecap="round"><g transform="translate(50 194.32760136003589) rotate(0 -9 20.5)"><path d="M-0.1 0.85 C-3.12 7.59, -14.74 33.43, -17.84 40.01 M-1.6 0.24 C-4.81 7.15, -15.67 34.19, -18.7 41.03" stroke="#e03131" stroke-width="4" fill="none"></path></g></g><mask></mask><g stroke-linecap="round"><g transform="translate(51 195.32760136003589) rotate(0 11 20)"><path d="M0.93 -0.62 C4.53 6.34, 17.38 34.2, 20.84 40.92 M-0.03 1.67 C3.98 8.38, 19.48 32.75, 22.94 39.28" stroke="#e03131" stroke-width="4" fill="none"></path></g></g><mask></mask><g stroke-linecap="round"><g transform="translate(22 157.32760136003589) rotate(0 27.5 -0.5)"><path d="M-0.37 1.1 C8.73 0.66, 46.09 -1.39, 55.35 -1.73 M1.63 0.63 C10.55 0.26, 45.78 -0.54, 54.59 -0.58" stroke="#e03131" stroke-width="4" fill="none"></path></g></g><mask></mask><g stroke-linecap="round"><g transform="translate(113 124.32760136003589) rotate(0 48.5 1.5)"><path d="M-0.85 -0.24 C15.5 0.6, 82 3.45, 98.13 4.09 M0.9 -1.42 C17.2 -0.8, 81.55 2.04, 97.77 2.53" stroke="#2f9e44" stroke-width="4" fill="none"></path></g><g transform="translate(113 124.32760136003589) rotate(0 48.5 1.5)"><path d="M73.97 10.18 C80.78 9.94, 90.15 3.94, 97.77 2.53 M73.97 10.18 C81.98 7.42, 91.46 4.83, 97.77 2.53" stroke="#2f9e44" stroke-width="4" fill="none"></path></g><g transform="translate(113 124.32760136003589) rotate(0 48.5 1.5)"><path d="M74.63 -6.91 C81.1 -2.02, 90.27 -2.88, 97.77 2.53 M74.63 -6.91 C82.51 -3.72, 91.76 -0.37, 97.77 2.53" stroke="#2f9e44" stroke-width="4" fill="none"></path></g></g><mask></mask><g stroke-linecap="round"><g transform="translate(200 167.32760136003589) rotate(0 -47 -3)"><path d="M-0.2 0.56 C-15.69 -0.37, -77.37 -5.65, -92.88 -6.63 M-1.76 -0.19 C-17.33 -0.89, -77.93 -4.24, -93.25 -5.42" stroke="#2f9e44" stroke-width="4" fill="none"></path></g><g transform="translate(200 167.32760136003589) rotate(0 -47 -3)"><path d="M-69.25 -12.44 C-75.8 -8.45, -85.2 -6.93, -93.25 -5.42 M-69.25 -12.44 C-77.22 -10.2, -85.97 -7.95, -93.25 -5.42" stroke="#2f9e44" stroke-width="4" fill="none"></path></g><g transform="translate(200 167.32760136003589) rotate(0 -47 -3)"><path d="M-70.35 4.62 C-76.41 3.34, -85.48 -0.42, -93.25 -5.42 M-70.35 4.62 C-77.86 0.73, -86.21 -3.15, -93.25 -5.42" stroke="#2f9e44" stroke-width="4" fill="none"></path></g></g><mask></mask></svg>